<?xml version="1.0" encoding="utf-8"?>
<svg version="1.0" width="900.000000pt" height="900.000000pt" viewBox="0 0 900.000000 900.000000" preserveAspectRatio="xMidYMid meet" xmlns="http://www.w3.org/2000/svg">
  <g transform="translate(0.000000,900.000000) scale(0.100000,-0.100000)" fill="#000000" stroke="none">
    <path d="M3827 7455 c-434 -82 -754 -388 -864 -825 -15 -59 -17 -230 -21&#10;-1815 -2 -1215 0 -1779 8 -1845 12 -106 56 -248 102 -330 17 -30 68 -91 112&#10;-135 89 -88 176 -138 296 -171 77 -20 258 -23 335 -5 67 16 175 58 204 80 l24&#10;18 -61 62 c-98 99 -151 199 -194 365 -21 80 -21 102 -25 1294 l-5 1212 201 0&#10;201 0 0 400 0 400 -200 0 -200 0 0 162 c0 189 9 218 90 291 136 122 356 76&#10;434 -92 20 -44 21 -63 27 -566 6 -560 6 -564 64 -725 108 -300 357 -541 666&#10;-644 141 -47 221 -56 490 -56 l229 0 0 394 0 395 -239 3 -239 3 -58 40 c-40&#10;28 -66 57 -88 95 -30 54 -31 58 -34 212 l-4 157 124 3 123 3 3 392 2 392 -136&#10;3 -137 3 -27 85 c-57 180 -125 294 -257 431 -144 149 -317 249 -518 299 -117&#10;29 -317 36 -428 15z" style="fill: rgb(234, 10, 142);"/>
    <path d="M3 6250 l3 -1155 22 -83 c62 -233 183 -387 374 -477 181 -85 431 -84&#10;602 2 83 42 83 37 7 119 -49 53 -82 100 -115 167 -87 178 -80 62 -83 1395 -2&#10;650 -7 1182 -11 1183 -4 0 -186 1 -405 2 l-398 2 4 -1155z" style="fill: rgb(234, 10, 142);"/>
    <path d="M960 5868 c0 -605 3 -766 14 -818 53 -248 204 -409 447 -477 93 -26&#10;323 -25 399 1 70 24 146 61 188 93 39 29 41 17 8 -52 -25 -55 -93 -123 -153&#10;-153 -143 -73 -368 -74 -580 -3 l-83 27 0 -362 0 -362 89 -21 c150 -35 279&#10;-51 421 -51 341 1 572 80 770 266 143 135 228 284 293 514 21 74 21 91 24&#10;1113 l4 1037 -396 0 -395 0 0 -602 c0 -580 -1 -604 -20 -635 -10 -18 -33 -39&#10;-49 -48 -61 -31 -136 -11 -171 48 -19 31 -20 55 -20 635 l0 602 -395 0 -395 0&#10;0 -752z" style="fill: rgb(234, 10, 142);"/>
    <path d="M6790 5303 c-317 -62 -563 -222 -727 -471 -100 -152 -155 -306 -170&#10;-480 -5 -48 -7 -513 -5 -1034 l2 -948 103 0 c127 0 208 19 317 73 218 107 351&#10;341 367 644 l6 113 201 2 201 3 3 398 2 397 -205 0 -205 0 0 145 c0 119 3 153&#10;20 197 43 115 139 182 259 182 70 -1 143 -27 177 -65 9 -10 21 -19 26 -19 4 0&#10;8 191 8 424 0 394 -1 424 -17 431 -21 9 -325 16 -363 8z" style="fill: rgb(234, 10, 142);"/>
    <path d="M8050 4670 c-318 -42 -590 -235 -725 -513 -77 -161 -80 -180 -80&#10;-532 1 -328 7 -392 57 -540 121 -365 446 -643 827 -710 109 -19 201 -19 382 0&#10;158 16 173 19 272 42 l67 15 0 359 c0 240 -3 359 -10 359 -6 0 -25 -6 -44 -14&#10;-144 -60 -403 -79 -531 -39 -73 23 -165 75 -165 93 0 6 40 10 103 10 382 0&#10;661 160 752 429 76 225 47 442 -87 642 -183 273 -520 438 -818 399z m150 -595&#10;c33 -17 60 -52 60 -77 0 -16 -12 -18 -119 -18 -67 0 -122 4 -126 10 -10 16 23&#10;68 53 84 35 20 95 20 132 1z" style="fill: rgb(234, 10, 142);"/>
    <path d="M3902 3688 l3 -783 24 -70 c39 -117 79 -185 150 -255 110 -110 260&#10;-172 446 -186 135 -11 304 33 409 105 39 27 46 29 46 14 0 -29 -55 -117 -95&#10;-151 -80 -71 -203 -112 -335 -112 -98 0 -236 23 -329 55 -41 14 -76 25 -78 25&#10;-2 0 -2 -163 -1 -362 l3 -362 50 -13 c153 -40 282 -56 450 -57 350 0 592 86&#10;794 284 170 165 275 402 301 678 6 63 10 487 10 1040 l0 932 -400 0 -400 0 0&#10;-611 0 -611 -39 -39 c-35 -35 -44 -39 -88 -39 -36 0 -58 6 -77 21 -58 45 -56&#10;25 -56 679 l0 600 -395 0 -396 0 3 -782z" style="fill: rgb(234, 10, 142);"/>
  </g>
</svg>